<?xml version="1.0" encoding="utf-8"?>
<!-- Generator: Adobe Illustrator 25.0.0, SVG Export Plug-In . SVG Version: 6.00 Build 0)  -->
<svg version="1.1" xmlns="http://www.w3.org/2000/svg" xmlns:xlink="http://www.w3.org/1999/xlink" x="0px" y="0px"
	 width="3401.6px" height="3401.6px" viewBox="0 0 3401.6 3401.6" enable-background="new 0 0 3401.6 3401.6" xml:space="preserve">
<g id="Calque_2">
	<linearGradient id="SVGID_1_" gradientUnits="userSpaceOnUse" x1="2796.0298" y1="-196.2281" x2="605.545" y2="3597.803">
		<stop  offset="9.483465e-07" style="stop-color:#FB1891"/>
		<stop  offset="0.5369" style="stop-color:#FDB872"/>
		<stop  offset="1" style="stop-color:#FCDA40"/>
	</linearGradient>
	<path fill="url(#SVGID_1_)" d="M3038.5,3401.6H363.1C162.6,3401.6,0,3239,0,3038.5V363.1C0,162.6,162.6,0,363.1,0l2675.4,0
		c200.5,0,363.1,162.6,363.1,363.1v2675.4C3401.6,3239,3239,3401.6,3038.5,3401.6z"/>
	<path d="M2947,3325.4H454.6c-209,0-378.4-169.4-378.4-378.4V454.6c0-209,169.4-378.4,378.4-378.4H2947
		c209,0,378.4,169.4,378.4,378.4V2947C3325.4,3156,3156,3325.4,2947,3325.4z"/>
</g>
<g id="Calque_3">
	
		<image overflow="visible" width="500" height="500" xlink:href="../../Downloads/v1-removebg-preview (1).png"  transform="matrix(7.703 0 0 7.703 -221.0106 -311.5317)">
	</image>
</g>
</svg>
