<svg version="1.2" xmlns="http://www.w3.org/2000/svg" viewBox="0 0 1280 400" width="1280" height="400">
	<title>secondbrain</title>
	<defs>
		<linearGradient id="g1" x2="1" gradientUnits="userSpaceOnUse" gradientTransform="matrix(58,-37.666,37.666,58,1200.54,271.833)">
			<stop offset="0" stop-color="#fb1891"/>
			<stop offset=".53" stop-color="#fc7c67"/>
			<stop offset="1" stop-color="#fcda40"/>
		</linearGradient>
	</defs>
	<style>
		.s0 { fill: #000000 } 
		.s1 { fill: url(#g1) } 
	</style>
	<path id="SecondBrain" class="s0" aria-label="SecondBrain"  d="m49.7 194.2q0 2.7 7.6 4.8 7.7 2.2 18.5 4.9 11 2.5 21.8 6.6 11 4.2 18.6 12.8 7.7 8.5 7.7 20.5 0 20.2-15.1 30.5-15 10-41.8 10-32.6 0-55.2-15.1l-1.8-1.4 1.2-2.2 13.5-22.1 1.5-2.4 2.3 1.5q2.3 1.4 6.1 3.4 4 2 14.8 5.4 10.8 3.2 20 3.2 6.3 0 10.4-1 4.3-1.3 5.9-3.3 1.8-2 2.4-3.6 0.5-1.8 0.5-3.9 0-3.5-4.1-6-4.2-2.7-10.8-4.5-6.5-1.8-14.4-3.6-7.9-1.8-15.9-4.5-7.9-2.9-14.5-6.5-6.5-3.7-10.7-10-4.1-6.3-4.1-14.6 0-19.5 15.8-29.9 15.9-10.4 38.4-10.4 11.1 0 21 2.3 10.1 2.3 16.8 5.9 6.6 3.6 9.7 5.6 3.1 2 5.2 3.8l0.2 0.2 1.4 1.2-1 2-13 20.9-1.6 2.5-2.4-1.8q-0.7-0.7-5.2-3.2-4.5-2.7-14.4-6-9.9-3.2-19.4-3.2-9.2 0-12.6 3.6-3.3 3.4-3.3 7.6zm97.1 75.4q-16.1-14.8-16.1-37.6 0-22.9 16.2-37.5 16.2-14.7 41.3-14.7 22.3 0 36.9 13.5 14.7 13.3 14.7 38.1 0 5.2-0.3 8.1l-0.4 2.4h-2.3-72.6q2.5 6.3 8.8 9.9 6.3 3.6 14.8 3.6 13.7 0 21.1-10.8l1.4-2.2 2.3 1.3 23.1 11.3 2.5 1.3-1.4 2.5q-7.2 11.9-20.2 18.7-12.8 6.8-28.8 6.8-24.8 0-41-14.7zm20.5-53.3h39.6q-3.1-7.7-19.1-7.7-13.3 0-20.5 7.7zm158.6 28.3l1.4-2.2 2.3 1.3 22.9 11.3 2.5 1.3-1.4 2.5q-7.2 11.9-20 18.7-12.8 6.8-28.8 6.8-25 0-41.2-14.7-16-14.8-16-37.6 0-22.9 16.2-37.5 16.2-14.7 41-14.7 16 0 28.6 6.6 12.8 6.7 20 18.6l1.4 2.5-2.5 1.2-22.7 11.7-2.3 1.3-1.4-2.2q-7.6-10.9-21.1-10.9-11 0-18.4 6.4-7.2 6.5-7.2 17 0 10.4 7.4 17.1 7.4 6.4 18.2 6.4 13.5 0 21.1-10.9zm52 25q-16-14.8-16-37.6 0-22.9 16-37.5 16-14.7 40.8-14.7 24.9 0 40.9 14.7 16 14.6 16 37.5 0 22.8-16 37.6-16 14.7-40.9 14.7-24.8 0-40.8-14.7zm58.8-20.5q7.2-6.7 7.2-17.1 0-10.5-7.2-17-7.2-6.4-18-6.4-10.8 0-18.1 6.4-7.2 6.5-7.2 17 0 10.4 7.2 17.1 7.3 6.4 18.1 6.4 10.8 0 18-6.4zm82.1-64.5v6.9q14.4-11.7 32.6-11.7 15.8 0 27.4 10.2 11.7 10.3 11.7 27.2v0.4 61.7 2.7h-2.7-27-2.9v-2.7-50.6q0-9-3.4-14.2-3.5-5.2-12.6-5.2-17.3 0-23.1 10.8v59.2 2.7h-2.9-27-2.7v-2.7-94.7-2.7h2.7 27 2.9zm164.2-35.8v-2.7h3 26.9 2.7v2.7 130.5 2.7h-2.7-26.9-3v-2.7-2.7q-11.7 7.7-28.1 7.7-24.5 0-39.2-14.5-14.6-14.8-14.6-37.8 0-23.1 14.6-37.7 14.7-14.5 39.2-14.5 16.4 0 28.1 7.7zm-7.2 100.1q7.2-6.5 7.2-16.9 0-10.5-7.2-17-7-6.4-17.8-6.4-10.8 0-18 6.4-7.2 6.5-7.2 17 0 10.4 7.2 16.9 7.2 6.5 18 6.5 10.8 0 17.8-6.5zm53.3-91.1v-2.7h2.7 39.2q53.1 0 53.1 37.4 0 14.3-11.9 22.9 7.2 3.6 11.7 10.4 4.5 6.9 4.5 15.9 0 40.3-57.4 40.3h-39.2-2.7v-2.7zm41.9 27.4h-7.4v16.7h7.4q12.6 0 16.7-1.6 4.2-1.6 4.2-7.4 0-5-4.2-6.3-3.9-1.4-16.7-1.4zm0 46.9h-7.4v19.8h7.4q14 0 20-2.3 5.9-2.3 5.9-8.3 0-5.4-6.3-7.2-6.3-2-19.6-2zm135-52.3h2.7v2.7 26.1 2.7h-2.7q-16.4 0-24.5 7.7-8.1 7.6-8.1 17.6v42.7 2.7h-3.2-28.3-2.7v-2.7-94.7-2.7h2.7 28.3 3.2v2.7 7.2q15.9-12 32.6-12zm9.4 14.7l1.8-1.4q1-1.1 5.7-3.6 4.9-2.7 16.9-6.1 12.3-3.6 25.6-3.6 16.6 0 27.7 9.9 11.2 9.9 11.2 30.4v0.5 58.7 2.7h-2.7-27-3.1v-2.7-5.6q-12.2 10.6-32 10.6-14.1 0-24.9-7.5-10.6-7.8-10.6-21.8 0-18.2 13.3-27.5 13.5-9.4 33-9.4h21.4q-0.4-4.3-2.7-6.5-2.2-2.3-9.4-2.3-3.2 0-6.6 0.5-3.4 0.4-6.3 1.1-2.7 0.5-5.2 1.4-2.6 0.8-4.5 1.7-1.8 0.7-3.3 1.4-1.4 0.5-2.3 1.1l-0.7 0.3-2.9 1.7-1.5-2.7-9.9-19.3zm56.2 46.4h-20q-14.6 0-14.6 9.9 0 8.5 13.5 8.5 8.9 0 15-6.3 6.1-6.5 6.1-12.1zm51.1-66.7q-4.7-4.7-4.7-12.3 0-7.5 4.7-12 4.9-4.7 12.1-4.7 7.2 0 11.9 4.7 4.8 4.5 4.8 12 0 7.6-4.8 12.3-4.7 4.5-11.9 4.5-7.2 0-12.1-4.5zm-3.8 10.4v-2.7h2.7 26.3 2.7v2.7 94.7 2.7h-2.7-26.3-2.7v-2.7zm78.7 0v6.8q14.4-11.7 32.6-11.7 15.8 0 27.3 10.3 11.7 10.2 11.7 27.2v0.3 61.8 2.7h-2.7-27-2.8v-2.7-50.6q0-9-3.5-14.2-3.4-5.3-12.6-5.3-17.2 0-23 10.8v59.3 2.7h-2.9-27-2.7v-2.7-94.7-2.7h2.7 27 2.9z"/>
	<path id="Forme 1" class="s1" d="m1222 282c-16 0-29-13-29-29 0-16 13-29 29-29 16 0 29 13 29 29 0 16-13 29-29 29z"/>
</svg>